<svg xmlns="http://www.w3.org/2000/svg" viewBox="0 0 800 800">
  <defs>
    <style>.a{fill:none;stroke:white;stroke-miterlimit:10;opacity:0.08}</style>
    <style>.b{fill:none;stroke:white;stroke-width:0.5;opacity:0.04}</style>
  </defs>
  <path class="a" stroke-width="2" d="M400 800 C200 600 100 400 200 200 C300 0 500 0 600 200 C700 400 600 600 400 800Z"/>
  <path class="b" d="M400 750 C250 580 170 410 250 230 C330 50 470 50 550 230 C630 410 550 580 400 750Z"/>
  <path class="a" stroke-width="1.5" d="M400 700 C300 550 240 420 300 260 C360 100 440 100 500 260 C560 420 500 550 400 700Z"/>
  <path class="b" d="M400 650 C350 530 310 430 350 290 C390 150 410 150 450 290 C490 430 450 530 400 650Z"/>
  <circle class="a" stroke-width="1.5" cx="400" cy="300" r="50"/>
  <circle class="b" cx="400" cy="300" r="30"/>
  <circle class="a" stroke-width="1" cx="250" cy="500" r="20"/>
  <circle class="b" cx="260" cy="510" r="10"/>
  <circle class="a" stroke-width="1" cx="550" cy="500" r="20"/>
  <circle class="b" cx="540" cy="510" r="10"/>
</svg>
