<svg xmlns="http://www.w3.org/2000/svg" viewBox="0 0 800 800">
  <defs>
    <style>.a{fill:none;stroke:white;stroke-miterlimit:10;opacity:0.08}</style>
    <style>.b{fill:none;stroke:white;stroke-width:0.5;opacity:0.04}</style>
  </defs>
  <path class="a" stroke-width="1.5" d="M0 0 L800 800"/>
  <path class="b" d="M100 0 L800 700"/>
  <path class="a" stroke-width="1" d="M200 0 L800 600"/>
  <path class="b" d="M0 100 L700 800"/>
  <path class="a" stroke-width="1" d="M0 200 L600 800"/>
  <path class="a" stroke-width="2" d="M400 0 L800 400"/>
  <path class="b" d="M0 400 L400 800"/>
  <rect class="a" stroke-width="1" x="100" y="100" width="150" height="150" transform="rotate(15 175 175)"/>
  <rect class="b" x="120" y="120" width="110" height="110" transform="rotate(15 175 175)"/>
  <rect class="a" stroke-width="1" x="550" y="550" width="120" height="120" transform="rotate(-10 610 610)"/>
  <rect class="b" x="565" y="565" width="90" height="90" transform="rotate(-10 610 610)"/>
  <circle class="a" stroke-width="1" cx="650" cy="200" r="40"/>
  <circle class="b" cx="650" cy="200" r="25"/>
  <circle class="a" stroke-width="1" cx="150" cy="600" r="35"/>
  <circle class="b" cx="150" cy="600" r="20"/>
</svg>
