<svg id="Raggruppa_516" data-name="Raggruppa 516" xmlns="http://www.w3.org/2000/svg" xmlns:xlink="http://www.w3.org/1999/xlink" width="100" height="100" viewBox="0 0 100 100">
  <defs>
    <clipPath id="clip-path">
      <rect id="Rettangolo_298" data-name="Rettangolo 298" width="100" height="100" fill="#fff"/>
    </clipPath>
  </defs>
  <g id="Raggruppa_431" data-name="Raggruppa 431" transform="translate(0 0)" clip-path="url(#clip-path)">
    <path id="Tracciato_2625" data-name="Tracciato 2625" d="M72.773,83.919H70.817l-3.13-4.106v4.106H65.318V75.61h2.077L70.4,79.561V75.61h2.369Zm-8.573,0H57.708V75.61h6.438v2.217H60.089v.8h3.57v2.22h-3.57V81.7H64.2Zm-.055,10.816H57.656v-8.31h6.436v2.22H60.034v.8H63.6v2.22h-3.57v.853h4.11ZM56.8,77.88H54.491v6.039H52.1V77.88H49.8V75.61h7Zm-.262,16.855H50.047v-8.31H56.48v2.22H52.424v.8h3.57v2.22h-3.57v.853h4.11Zm-9.9,0-1.623-2.425h-.755v2.425H41.865v-8.31h3.821a3.378,3.378,0,0,1,2.46.873,2.739,2.739,0,0,1,.758,2v.02a2.692,2.692,0,0,1-1.435,2.506l1.995,2.916ZM41.677,75.61h2.391v4.653c0,1,.427,1.5,1.27,1.5s1.273-.488,1.273-1.448V75.61H49v4.642c0,2.405-1.342,3.786-3.681,3.786-2.314,0-3.642-1.361-3.642-3.732Zm-.557,8.31H34.955V75.61h2.391v6.056h3.774Zm-.226,4.76H36.8v.873h3.612V91.8H36.8v2.933H34.4v-8.31h6.491Zm-7.177-6.028-.132.112a5.307,5.307,0,0,1-3.466,1.283,4.16,4.16,0,0,1-4.342-4.26v-.022a4.264,4.264,0,0,1,4.334-4.285A4.509,4.509,0,0,1,33.319,76.6l.278.236-1.515,1.827-.275-.23a2.426,2.426,0,0,0-1.749-.685,1.912,1.912,0,0,0-1.813,1.993v.02a1.9,1.9,0,0,0,1.931,2.032,2.406,2.406,0,0,0,1.207-.289V81H29.707V78.82h4.011ZM50,0a50,50,0,1,0,50,50A50,50,0,0,0,50,0M45.545,88.668H44.253V90.1h1.325c.275,0,.915-.07.915-.7v-.02c0-.177,0-.713-.948-.713M21.213,72.062,36.831,58.44a17.428,17.428,0,0,1-3.6-5.877L12.351,70.771A43.007,43.007,0,0,1,75.709,15.514l-7.9,6.892v.09a17.2,17.2,0,0,1-2.468,8.891h2.468v.036L80.85,20.043a43,43,0,0,1,6.08,52.019ZM50.584,48.716V59.055A14.138,14.138,0,0,1,64.612,46.667,14.139,14.139,0,0,1,50.584,60.8v6.533c0,.648-.262,1.027-.584,1.027s-.587-.379-.587-1.027V60.8A14.14,14.14,0,0,1,35.385,46.667a14.137,14.137,0,0,1,14.028,12.39V48.716A14.139,14.139,0,0,1,35.385,34.58a14.137,14.137,0,0,1,14.028,12.39V36.629A14.138,14.138,0,0,1,35.385,22.5,14.134,14.134,0,0,1,49.413,34.883V30.954A14.139,14.139,0,0,1,50,11.585a14.136,14.136,0,0,1,.584,19.37v3.929A14.138,14.138,0,0,1,64.612,22.5,14.136,14.136,0,0,1,50.584,36.629V46.971A14.138,14.138,0,0,1,64.612,34.58,14.137,14.137,0,0,1,50.584,48.716" transform="translate(0 0)" fill="#fff"/>
  </g>
</svg>
