<svg xmlns="http://www.w3.org/2000/svg" width="24" height="28.8" viewBox="0 0 24 28.8">
  <path id="iconmonstr-cv-4" d="M3.2,28.8H26V1.2H24.8V27.6H3.2ZM23.6,0H2V26.4H23.6ZM22.4,1.2H3.2v24H22.4ZM20,20.4H5.6v1.2H20Zm0-3.6H5.6V18H20Zm0-3.6H5.6v1.2H20ZM11.182,8.564l1.138.36a2.546,2.546,0,0,1-.87,1.414,2.479,2.479,0,0,1-1.544.462A2.5,2.5,0,0,1,8,10.009a3.025,3.025,0,0,1-.745-2.162,3.178,3.178,0,0,1,.749-2.254,2.568,2.568,0,0,1,1.97-.8,2.417,2.417,0,0,1,1.732.63,2.288,2.288,0,0,1,.6,1.07l-1.162.277a1.2,1.2,0,0,0-1.225-.974,1.326,1.326,0,0,0-1.049.463,2.278,2.278,0,0,0-.4,1.5,2.427,2.427,0,0,0,.4,1.57,1.285,1.285,0,0,0,1.03.468,1.171,1.171,0,0,0,.805-.3,1.724,1.724,0,0,0,.484-.935ZM14.81,10.7,12.733,4.89H14l1.471,4.3L16.9,4.89h1.244L16.063,10.7H14.81Z" transform="translate(-2)" fill="#6a3f24" fill-rule="evenodd"/>
</svg>
