<svg id="Raggruppa_517" data-name="Raggruppa 517" xmlns="http://www.w3.org/2000/svg" xmlns:xlink="http://www.w3.org/1999/xlink" width="92.323" height="99.497" viewBox="0 0 92.323 99.497">
  <defs>
    <clipPath id="clip-path">
      <rect id="Rettangolo_305" data-name="Rettangolo 305" width="92.323" height="99.497" fill="#fff"/>
    </clipPath>
  </defs>
  <g id="Raggruppa_487" data-name="Raggruppa 487" clip-path="url(#clip-path)">
    <path id="Tracciato_2642" data-name="Tracciato 2642" d="M18.138,35.365a3.157,3.157,0,0,0-.372-.539,2.162,2.162,0,0,0-.413-.454,1.561,1.561,0,0,0-.457-.29,1.285,1.285,0,0,0-.662-.185,1.324,1.324,0,0,0-.683.164,1.922,1.922,0,0,0-.372.249,1.254,1.254,0,0,0-.331.393,1.968,1.968,0,0,0-.205,1.179A5.226,5.226,0,0,0,15.2,37.6a8.282,8.282,0,0,0,.539.953,4.109,4.109,0,0,0,.662.827,1.833,1.833,0,0,0,.868.5A1.451,1.451,0,0,0,18.3,39.73a1.42,1.42,0,0,0,.891-1.363,5.973,5.973,0,0,0-.745-2.442c-.1-.187-.208-.372-.311-.56" transform="translate(22.932 53.138)" fill="#fff"/>
    <path id="Tracciato_2643" data-name="Tracciato 2643" d="M75.91,85.983h-.1l-.164-.082c-.311-.123-.539-.229-.706-.29s-.349-.146-.578-.229-.5-.185-.806-.311c-.29-.123-.706-.27-1.243-.454-.331-.123-.58-.205-.724-.249a4.457,4.457,0,0,0-.56-.185l-.249-.085c.519.6.829.994.973,1.161.126.164.331.393.6.7s.475.56.642.745.413.478.765.847v.105c-.372.311-.662.537-.806.662-.105.082-.208.185-.311.267-.105.105-.29.249-.519.457l-.1-.021a6.765,6.765,0,0,0-.539-.662c-.288-.372-.537-.7-.765-.994s-.5-.6-.786-.973c-.539-.662-.994-1.2-1.345-1.636-.352-.413-.662-.786-.912-1.076s-.5-.557-.745-.827-.475-.539-.724-.806v-.105c.413-.352.745-.619.953-.806s.434-.372.7-.621l.1.021,2.483,3.125c-.021-.331-.041-.662-.082-.95-.021-.311-.062-.6-.1-.932-.041-.311-.1-.7-.167-1.161s-.144-.994-.246-1.592l.021-.126c.454-.372.806-.662,1.035-.868.205-.187.475-.393.765-.662l.123.123v.994c0,.311.021.6.021.932.021.311.041.683.085,1.137.041.434.082,1.014.144,1.738.372.146.786.311,1.243.478s.973.352,1.51.516c.539.185,1.055.352,1.553.5s.95.267,1.407.372l.062.144Zm-7.8,3.808a4.039,4.039,0,0,1-.27,1.117,3.609,3.609,0,0,1-.786,1.137,5.049,5.049,0,0,1-1.222.829c-.185.082-.372.167-.58.249a3.685,3.685,0,0,1-.724.185,5.44,5.44,0,0,1-.847.064,3.67,3.67,0,0,1-.912-.167,4.093,4.093,0,0,1-.994-.5,4.294,4.294,0,0,1-.786-.724,5.376,5.376,0,0,1-.56-.765c-.144-.249-.288-.5-.413-.765a8.079,8.079,0,0,1-.475-1.243c-.062-.226-.105-.434-.167-.662a4,4,0,0,1,.085-1.779,3.909,3.909,0,0,1,.475-1.055,3.63,3.63,0,0,1,.765-.827,5.355,5.355,0,0,1,.994-.642,4.777,4.777,0,0,1,1.243-.413,3.8,3.8,0,0,1,1.2-.041,3.14,3.14,0,0,1,.994.329c.123.064.29.146.454.249a3.2,3.2,0,0,1,.56.454,5.253,5.253,0,0,1,.642.768,9.242,9.242,0,0,1,.662,1.117,6.32,6.32,0,0,1,.372.912,8.029,8.029,0,0,1,.249,1.035,4.2,4.2,0,0,1,.041,1.137m-9.272,5.775c-.352.082-.621.123-.809.185-.185.041-.454.105-.786.187l-.1-.041L55.713,94.47,54.1,92.834l-.724-.724-.434-.434a4.392,4.392,0,0,1-.416-.457c-.144-.164-.352-.372-.557-.642l.434,1.7.352,1.553.7,2.773-.041.082c-.393.082-.7.144-.932.187s-.5.123-.847.205l-.082-.062L51.3,95.792c-.208-1.117-.372-1.964-.478-2.524-.164-.827-.352-1.612-.516-2.38s-.372-1.677-.642-2.753l.041-.082c.167-.041.311-.062.434-.082l.27-.041c.208-.041.372-.085.539-.126.185-.041.434-.1.765-.185l.1.041c.126.144.27.29.4.413.123.144.352.372.7.724l.765.806,1.469,1.471c.187.205.352.372.5.516a4.57,4.57,0,0,1,.331.352c.085.1.167.187.229.27s.167.187.311.352l-.475-2.09-.416-1.759-.434-1.7.041-.082c.437-.085.745-.146.973-.208.208-.041.475-.1.765-.185l.105.021V86.6c.372,1.9.639,3.31.847,4.242.146.745.393,1.885.724,3.436l.249,1.2ZM48.757,97.325c-.557-.021-.971-.041-1.281-.041h-.891L46.5,97.2l-.454-2.419-2.691-.105-.7,2.339-.085.082-1.944-.082-.062-.082c.475-1.243.868-2.319,1.22-3.251s.621-1.7.85-2.3.413-1.181.6-1.718.372-1.078.56-1.656l.082-.082c.7.021,1.181.041,1.448.062H45.8c.164,0,.454,0,.868.021l.105.062c.144.662.267,1.22.352,1.7.1.475.226.994.352,1.551s.434,1.926.929,4.1l.416,1.8ZM39.8,88.941c-.082.187-.164.457-.308.809l-.105.021V89.75a6.557,6.557,0,0,0-.827-.847,2.824,2.824,0,0,0-.973-.478,2.342,2.342,0,0,0-2.07.29,3.483,3.483,0,0,0-1.325,2.07,5.567,5.567,0,0,0-.164.912,4.031,4.031,0,0,0,.062.991,2.015,2.015,0,0,0,.475.912,2.062,2.062,0,0,0,1.014.6,2.676,2.676,0,0,0,.393.082c.126.021.29.021.478.041h.082a4.631,4.631,0,0,1,.144-.454c.041-.167.064-.27.085-.331.082-.29.144-.56.205-.806.062-.27.126-.621.229-1.119l.082-.062,2.049.539.041.082-.021.041c-.229.786-.413,1.407-.539,1.841l-.1.311c-.082.249-.185.642-.311,1.161l-.144.578-.082.085h-.021a12.8,12.8,0,0,1-1.512.021,6.288,6.288,0,0,1-1.448-.27c-.331-.105-.642-.208-.891-.311a6.758,6.758,0,0,1-.662-.352,7.818,7.818,0,0,1-.929-.765,3.59,3.59,0,0,1-.745-1.2,4.863,4.863,0,0,1-.021-3.125,7.167,7.167,0,0,1,.537-1.345,4.779,4.779,0,0,1,.806-1.137,4.517,4.517,0,0,1,1.078-.786,3.862,3.862,0,0,1,2.234-.437,7.931,7.931,0,0,1,1.117.208,5.919,5.919,0,0,1,1.366.56,6.718,6.718,0,0,1,1.035.745l.041.082c-.164.393-.288.683-.352.868m-8.258-2.357c-.267-.146-.516-.29-.786-.457-.27-.144-.475-.267-.642-.372-.249-.144-.724-.393-1.387-.745l-.973,1.864,2.691,1.387.021.1L29.7,89.627l-.123.021-2.568-1.387-1.055,2.028c.7.37,1.222.639,1.553.827.205.1.454.226.765.372s.56.27.724.352l.041.082-.827,1.366-.126.021L23.24,90.723l-.041-.085a.665.665,0,0,1,.105-.164c.352-.621.639-1.137.888-1.571.229-.437.519-.953.87-1.595.765-1.407,1.281-2.421,1.612-3.063.146-.29.27-.539.352-.745.105-.208.249-.5.416-.87l.1-.041,4.822,2.588.041.082-.786,1.284ZM21.15,85.3c-.454.311-.868.6-1.261.888q-.593.4-1.366,1l-.167.021c-.516-.457-.932-.809-1.2-1.037-.229-.185-.5-.413-.829-.683v-.1l.765-1.469c.375-.745.85-1.7,1.41-2.855s1.22-2.547,1.964-4.119l.105-.021c.352.308.639.557.827.7.123.1.29.226.5.372.208.164.352.267.416.311l.021.1-.187.352c-.331.6-.56.973-.621,1.137a5.478,5.478,0,0,0-.267.5c-.085.185-.229.434-.4.765L20.3,82.217,18.79,84.969,20.778,83.5l1.407-1.035c.29-.187.519-.372.745-.519.208-.164.4-.29.539-.393s.311-.246.5-.393.416-.331.7-.56l.021-.021.105-.021c.311.27.557.478.724.621.185.146.434.352.765.6v.082c-1.718,1.137-2.9,1.926-3.518,2.339s-1.158.786-1.615,1.1M56.956,8.961a125.965,125.965,0,0,0,.67,14.646A32.349,32.349,0,0,1,78.491,53.284h-.013v.062A32.327,32.327,0,0,1,55.962,84.155c-.149.059-.3.116-.454.169,6.232-10.507,4.837-25.718,3.587-37.4-.01-.051-2.026-11.362-2.989-23.2C55.2,12.5,55.472,4.653,56.953,0c-13.85,12.525-10.9,33.308-8.037,53.456,1.345,9.477,2.616,18.428,2.028,26.116L50.719,82.5l-1.43-2.56c-.8-1.433-1.677-3.125-2.606-4.917C40.117,62.356,30.424,43.666,13.809,45.479c4.134,2.462,8.042,9.056,12.394,16.4.644,1.086,1.3,2.185,1.957,3.284,5.22,8.689,11.216,18.952,18.5,20.5-.745.018-1.2.008-1.2.008A32.319,32.319,0,0,1,13.829,53.78h.015a32.427,32.427,0,0,1,.639-6.378,6.579,6.579,0,0,0-4.075-1.774c-.229,0-.454.021-.662.041a.275.275,0,0,1-.331-.229.3.3,0,0,1,.208-.352,23.441,23.441,0,0,1,5.687-.917A32.344,32.344,0,0,1,45.355,21.527c0-.031.005-.064.01-.1A38.481,38.481,0,0,1,49.284,7.8c-1.03-.067-2.067-.105-3.112-.105A46.143,46.143,0,0,0,.005,53.284H0v.062c0,.074,0,.149,0,.223s0,.141,0,.211H.005a46.148,46.148,0,0,0,92.292,0h.026A46.176,46.176,0,0,0,56.956,8.961" fill="#fff"/>
    <path id="Tracciato_2644" data-name="Tracciato 2644" d="M17.782,36.335l-.7,2.175,1.905.062-.393-2.049-.313-1.7Z" transform="translate(26.774 54.594)" fill="#fff"/>
    <path id="Tracciato_2645" data-name="Tracciato 2645" d="M27.427,34.787a3.155,3.155,0,0,0-.372-.539,2.228,2.228,0,0,0-.413-.454,1.616,1.616,0,0,0-.457-.29,1.285,1.285,0,0,0-.662-.185,1.349,1.349,0,0,0-.683.164,2.189,2.189,0,0,0-.372.249,1.215,1.215,0,0,0-.329.393,1.949,1.949,0,0,0-.208,1.179,5.288,5.288,0,0,0,.557,1.718,8.068,8.068,0,0,0,.539.953,4.2,4.2,0,0,0,.662.829,1.849,1.849,0,0,0,.868.5,1.463,1.463,0,0,0,1.035-.144,1.426,1.426,0,0,0,.891-1.366,5.973,5.973,0,0,0-.745-2.442c-.1-.187-.208-.372-.311-.56" transform="translate(37.494 52.232)" fill="#fff"/>
  </g>
</svg>
