<svg xmlns="http://www.w3.org/2000/svg" xmlns:xlink="http://www.w3.org/1999/xlink" width="99.94" height="99.94" viewBox="0 0 99.94 99.94">
  <defs>
    <clipPath id="clip-path">
      <rect id="Rettangolo_308" data-name="Rettangolo 308" width="99.94" height="99.94" fill="#fff"/>
    </clipPath>
  </defs>
  <g id="Raggruppa_518" data-name="Raggruppa 518" transform="translate(-8679.521 -452)">
    <g id="Raggruppa_511" data-name="Raggruppa 511" transform="translate(8679.521 452)">
      <g id="Raggruppa_492" data-name="Raggruppa 492" clip-path="url(#clip-path)">
        <path id="Tracciato_2666" data-name="Tracciato 2666" d="M81.964,65.537a12.714,12.714,0,0,0,7.627-1.727,28.454,28.454,0,0,0-.045,6.66,18.972,18.972,0,0,1-3.981-.784c-15.8-4.963-24.542,13.206-16.354,27.6a47.33,47.33,0,0,0,10.029,12.772c4.381,3.137,8.239,2.708,11.805.765a11.15,11.15,0,0,0,9.057.671c4.741-1.781,9.565-8.811,11.84-13.157,4.967-9.5,6.654-21.691-4.425-27.631-3.024-1.623-6.8-2.1-11.593-1.021a15.446,15.446,0,0,1-3.414.755c0-.025,0-.049,0-.069a22.436,22.436,0,0,1,.76-9.487,15.374,15.374,0,0,1,4.253-6.6,1.477,1.477,0,0,0-2-2.175,18.317,18.317,0,0,0-5.062,7.854c-.133.4-.256.819-.364,1.243-2.96-5.254-7.977-7.972-16.235-6.709l-3.241.341c2.373,4.928,5.3,9.955,11.346,10.7M73.992,91.589a1.122,1.122,0,0,1,1.421.705,17.717,17.717,0,0,0,2.758,5.145,25.749,25.749,0,0,0,4.253,4.3,1.122,1.122,0,0,1-1.416,1.741A27.791,27.791,0,0,1,76.389,98.8a19.845,19.845,0,0,1-3.1-5.792,1.122,1.122,0,0,1,.705-1.421" transform="translate(-40.968 -32.067)" fill="#fff" fill-rule="evenodd"/>
        <path id="Tracciato_2667" data-name="Tracciato 2667" d="M49.97,0a49.97,49.97,0,1,0,49.97,49.97A49.97,49.97,0,0,0,49.97,0m0,92.905A42.935,42.935,0,1,1,92.906,49.97,42.935,42.935,0,0,1,49.97,92.905" fill="#fff"/>
      </g>
    </g>
  </g>
</svg>
