<svg xmlns="http://www.w3.org/2000/svg" xmlns:xlink="http://www.w3.org/1999/xlink" width="100" height="92.854" viewBox="0 0 100 92.854">
  <defs>
    <clipPath id="clip-path">
      <rect id="Rettangolo_338" data-name="Rettangolo 338" width="100" height="92.853" fill="#fff"/>
    </clipPath>
  </defs>
  <g id="Raggruppa_519" data-name="Raggruppa 519" clip-path="url(#clip-path)">
    <path id="Tracciato_2669" data-name="Tracciato 2669" d="M85.971,20.544V18.163A10.078,10.078,0,0,0,75.9,8.1H69.638C63.885,2.794,57.117,0,50,0S36.115,2.794,30.361,8.1H24.1A10.079,10.079,0,0,0,14.027,18.163v2.382C5.093,27.409,0,36.77,0,46.428S5.093,65.447,14.027,72.311v2.381A10.08,10.08,0,0,0,24.1,84.761h6.265c5.755,5.3,12.522,8.093,19.639,8.093s13.885-2.794,19.638-8.093H75.9A10.079,10.079,0,0,0,85.971,74.692V72.311C94.907,65.447,100,56.085,100,46.428S94.907,27.409,85.971,20.544M83.162,70.9v3.794A7.266,7.266,0,0,1,75.9,81.951H68.516c-5.4,5.3-11.789,8.1-18.516,8.1s-13.117-2.8-18.516-8.1H24.1a7.266,7.266,0,0,1-7.258-7.258V70.9C7.91,64.493,2.809,55.616,2.809,46.428s5.1-18.066,14.029-24.471V18.163A7.266,7.266,0,0,1,24.1,10.9h7.388c5.4-5.3,11.787-8.1,18.516-8.1s13.116,2.8,18.516,8.1H75.9a7.266,7.266,0,0,1,7.258,7.258v3.794c8.927,6.4,14.027,15.282,14.027,24.471S92.089,64.494,83.162,70.9" transform="translate(0 -0.001)" fill="#fff"/>
    <path id="Tracciato_2670" data-name="Tracciato 2670" d="M100.111,41.39V36.746a5.628,5.628,0,0,0-5.621-5.621H86.423c-5.189-5.3-11.342-8.095-17.837-8.095s-12.648,2.8-17.837,8.095H42.682a5.627,5.627,0,0,0-5.619,5.621V41.39c-8.928,6.137-14.029,14.7-14.029,23.62s5.1,17.483,14.029,23.62v4.645A5.627,5.627,0,0,0,42.682,98.9h8.067c5.189,5.3,11.343,8.093,17.837,8.093s12.649-2.8,17.837-8.093H94.49a5.627,5.627,0,0,0,5.621-5.621V88.63c8.927-6.137,14.027-14.7,14.027-23.62s-5.1-17.483-14.027-23.62M98.472,87.757v5.518a3.994,3.994,0,0,1-3.982,3.982H85.725c-4.771,5.08-10.707,8.093-17.139,8.093s-12.366-3.013-17.139-8.093H42.682A3.994,3.994,0,0,1,38.7,93.275V87.757C30.073,82.087,24.673,74,24.673,65.01s5.4-17.077,14.027-22.747V36.746a3.993,3.993,0,0,1,3.982-3.982h8.765c4.773-5.08,10.707-8.095,17.139-8.095s12.368,3.015,17.139,8.095H94.49a3.994,3.994,0,0,1,3.982,3.982v5.518C107.1,47.933,112.5,56.025,112.5,65.01s-5.4,17.077-14.027,22.747" transform="translate(-18.586 -18.583)" fill="#fff"/>
    <path id="Tracciato_2671" data-name="Tracciato 2671" d="M97.211,189.546a.986.986,0,0,1,0,1.971,11.12,11.12,0,1,0,0,22.239.986.986,0,0,1,0,1.973,13.092,13.092,0,1,1,0-26.183" transform="translate(-67.877 -152.947)" fill="#fff"/>
    <path id="Tracciato_2672" data-name="Tracciato 2672" d="M172.113,189.545a11.456,11.456,0,0,1,11.472,11.362,11.336,11.336,0,0,1-4.64,9.16l2.741,4.122a.811.811,0,0,1,.172.555.986.986,0,0,1-.986.986.906.906,0,0,1-.827-.451l-2.784-4.186a11.356,11.356,0,0,1-4.051,1.132v2.518a.986.986,0,0,1-1.971,0V190.411a.9.9,0,0,1,.864-.866Zm1.1,2.025v18.674a9.388,9.388,0,0,0,0-18.674" transform="translate(-138.174 -152.947)" fill="#fff"/>
    <path id="Tracciato_2673" data-name="Tracciato 2673" d="M253.836,189.546h3.46a.986.986,0,0,1,0,1.971h-3.46a2.471,2.471,0,0,0-2.475,2.472v.745H257.3a.986.986,0,0,1,0,1.971h-5.936l0,14.578a2.058,2.058,0,0,0,1.185,2.145,3.543,3.543,0,0,0,1.292.328H257.3a.986.986,0,0,1,0,1.973h-3.463a5.05,5.05,0,0,1-2.168-.536,4.167,4.167,0,0,1-2.274-3.908l0-15.578v-1.715a4.447,4.447,0,0,1,4.445-4.445" transform="translate(-201.237 -152.947)" fill="#fff"/>
    <path id="Tracciato_2674" data-name="Tracciato 2674" d="M310.545,189.921a.886.886,0,0,1,.972.454l2.577,5.155,2.578-5.155a.886.886,0,0,1,.972-.454l.229.053a.889.889,0,0,1,.666.842v24.212a.986.986,0,1,1-1.971,0V194.992l-1.7,3.4a1.018,1.018,0,0,1-.328.354.873.873,0,0,1-1.219-.354l-1.7-3.4v20.036a.986.986,0,1,1-1.971,0V190.816a.89.89,0,0,1,.666-.842Z" transform="translate(-249.861 -153.232)" fill="#fff"/>
    <path id="Tracciato_2675" data-name="Tracciato 2675" d="M371.017,209.756l4.077-19.025a1.025,1.025,0,0,1,1.927,0l5.189,24.212a.9.9,0,0,1-.664,1.026l-.237.051a.884.884,0,0,1-1.026-.664l-.945-4.41h-6.559l-.945,4.41a.886.886,0,0,1-1.027.664l-.237-.051a.9.9,0,0,1-.664-1.026Zm5.042-14.114L373.2,208.976h5.715Z" transform="translate(-298.467 -153.353)" fill="#fff"/>
    <path id="Tracciato_2676" data-name="Tracciato 2676" d="M230.816,67.047a2.562,2.562,0,0,1,3.776,0,2.873,2.873,0,0,1,.723,1.349c-.025,0-.05,0-.075,0a3.753,3.753,0,0,0-2.539.983,3.754,3.754,0,0,0-2.533-.983c-.026,0-.052,0-.076,0a2.871,2.871,0,0,1,.723-1.349m-3.11,6.294a2.8,2.8,0,0,1-.22-1.086,2.684,2.684,0,1,1,5.367,0,2.963,2.963,0,0,1-.212,1.086Zm4.951,9.722a.558.558,0,1,1,.559-.559.558.558,0,0,1-.559.559m3.62-4.929a3.713,3.713,0,0,1-7.139,0l-1.053-3.673h9.244Zm1.646-5.88a3.32,3.32,0,0,1-.217,1.086h-3.884a4.06,4.06,0,0,0,.15-1.086,3.874,3.874,0,0,0-.557-2.009,2.647,2.647,0,0,1,1.826-.73,2.715,2.715,0,0,1,2.683,2.74m-2.465,11.928a.559.559,0,0,0,.556-.56.553.553,0,0,0-.556-.559l-1.219,0a1.678,1.678,0,0,0-.094-1.333,4.841,4.841,0,0,0,1.471-.757,4.79,4.79,0,0,0,1.737-2.53L238.6,74.1a4.575,4.575,0,0,0,.445-1.846,3.876,3.876,0,0,0-1.252-2.86l3.24-3.337a.56.56,0,0,0-.8-.782s0,0-.006.006l-3.373,3.476c-.041-.02-.273-.123-.366-.165a3.977,3.977,0,0,0-1.079-2.32c-.091-.1-.185-.184-.282-.269a3.677,3.677,0,0,0-5.117.269,3.992,3.992,0,0,0-1.082,2.334,3.862,3.862,0,0,0-2.558,3.647,3.92,3.92,0,0,0,.437,1.8l1.258,4.392a4.8,4.8,0,0,0,1.736,2.53,4.891,4.891,0,0,0,1.388.731,1.66,1.66,0,0,0-.109,1.36l-1.219,0a.552.552,0,0,0-.555.559.558.558,0,0,0,.555.56Z" transform="translate(-182.657 -52.527)" fill="#fff"/>
    <path id="Tracciato_2677" data-name="Tracciato 2677" d="M137.125,362.2l1.354,3.725h-.511l-.479-1.319H136.5l-.478,1.319h-.514l1.354-3.725Zm.188,1.926-.319-.873-.316.873Zm2.49,1.8V362.2h.482v3.241h1.33v.484Zm4.155-3.243v3.243h-.483v-3.243h-.869V362.2h2.22v.482Zm3.4-.482,1.354,3.725h-.512l-.479-1.319h-.988l-.476,1.319h-.514L147.1,362.2Zm.188,1.926-.319-.873-.316.873Zm11.742-1.926v.482h-1.524v1.138h1.524v.482h-1.524v1.139h1.524v.484h-2.006V362.2Zm1.5,3.725V362.2h.482v3.241H162.6v.484ZM165.4,362.2l1.354,3.725h-.512l-.479-1.319h-.988l-.476,1.319h-.515l1.354-3.725Zm.188,1.926-.319-.873-.317.873Zm3.439-1.444v3.243h-.485v-3.243h-.867V362.2h2.22v.482Zm4.2-.482v.482H171.7v1.138h1.524v.482H171.7v1.139h1.524v.484h-2V362.2Zm2.42,2.533h-.439v1.192h-.482V362.2h1.057a1.291,1.291,0,0,1,.758.37,1.27,1.27,0,0,1,0,1.793,1.051,1.051,0,0,1-.391.288l.826,1.273h-.584Zm-.439-2.048v1.563h.439a.781.781,0,0,0,0-1.563Zm3.629,3.24h-.481V362.2h.481Zm2.988-3.725,1.355,3.725h-.513l-.479-1.319H181.2l-.478,1.319h-.515l1.354-3.725Zm.188,1.926-.319-.873-.316.873Zm-27.437-.035v.482h.647v.642a1.293,1.293,0,0,1-.834.265,1.415,1.415,0,1,1,0-2.831,1.556,1.556,0,0,1,1.039.441l.36-.328a2.05,2.05,0,0,0-1.4-.6,1.9,1.9,0,1,0,0,3.8,1.85,1.85,0,0,0,1.315-.548v-1.324h-1.129Z" transform="translate(-109.345 -292.228)" fill="#fff"/>
  </g>
</svg>
